<!-- Generated by IcoMoon.io -->
<svg version="1.1" id="afterEffects" xmlns="http://www.w3.org/2000/svg" width="32" height="32" viewBox="0 0 32 32">
<path fill="#fff" d="M5.667 0h20.667c3.133 0 5.667 2.598 5.667 5.812v20.376c0 3.214-2.533 5.812-5.667 5.812h-20.667c-3.133 0-5.667-2.598-5.667-5.812v-20.376c0-3.214 2.533-5.812 5.667-5.812z"></path>
<path fill="#696969" d="M12.853 19.145h-4.96l-1.013 3.227c-0.027 0.123-0.133 0.205-0.253 0.191h-2.507c-0.147 0-0.187-0.082-0.147-0.246l4.293-12.622c0.040-0.137 0.080-0.26 0.133-0.424 0.053-0.287 0.080-0.588 0.080-0.889-0.013-0.068 0.040-0.137 0.107-0.15h3.453c0.093 0 0.16 0.041 0.173 0.109l4.867 13.949c0.040 0.151 0 0.219-0.133 0.219h-2.787c-0.093 0.014-0.187-0.055-0.213-0.151l-1.093-3.282v0.068zM8.667 16.424h3.387c-0.080-0.287-0.187-0.629-0.307-0.985-0.12-0.369-0.24-0.766-0.36-1.176-0.133-0.424-0.253-0.834-0.387-1.258s-0.253-0.82-0.36-1.217c-0.107-0.383-0.2-0.738-0.293-1.067h-0.027c-0.12 0.588-0.267 1.176-0.453 1.764-0.2 0.656-0.4 1.34-0.613 2.024-0.173 0.697-0.387 1.34-0.587 1.914z"></path>
<path fill="#696969" d="M24.933 17.915h-4.227c0.053 0.424 0.187 0.848 0.413 1.217 0.24 0.369 0.573 0.656 0.973 0.82 0.533 0.233 1.12 0.356 1.707 0.342 0.467-0.014 0.933-0.055 1.387-0.15 0.413-0.055 0.813-0.164 1.187-0.315 0.067-0.055 0.107-0.027 0.107 0.109v2.092c0 0.055-0.013 0.109-0.027 0.164-0.027 0.041-0.053 0.068-0.093 0.096-0.427 0.191-0.867 0.328-1.333 0.41-0.627 0.123-1.253 0.178-1.893 0.164-1.013 0-1.867-0.164-2.56-0.479-0.653-0.287-1.227-0.738-1.68-1.299-0.427-0.533-0.733-1.135-0.92-1.791-0.187-0.643-0.28-1.313-0.28-1.996 0-0.739 0.107-1.463 0.333-2.174 0.213-0.684 0.547-1.313 1-1.873 0.44-0.547 0.987-0.985 1.613-1.299s1.373-0.424 2.227-0.424c0.707-0.014 1.413 0.123 2.067 0.424 0.547 0.246 1.027 0.615 1.4 1.094 0.347 0.465 0.627 0.985 0.8 1.559 0.173 0.547 0.253 1.108 0.253 1.668 0 0.328-0.013 0.615-0.027 0.875-0.027 0.26-0.040 0.451-0.053 0.574-0.013 0.096-0.093 0.178-0.187 0.178-0.080 0-0.227 0.014-0.44 0.027-0.213 0.027-0.467 0.041-0.773 0.041s-0.627-0.055-0.973-0.055zM20.707 15.918h2.813c0.347 0 0.6 0 0.76-0.014 0.107-0.014 0.213-0.041 0.307-0.109v-0.137c0-0.178-0.027-0.342-0.080-0.506-0.24-0.766-0.947-1.285-1.733-1.258-0.733-0.041-1.427 0.356-1.773 1.039-0.16 0.315-0.253 0.643-0.293 0.985z"></path>
</svg>
