<!-- Generated by IcoMoon.io -->
<svg version="1.1" id="lightroom" xmlns="http://www.w3.org/2000/svg" width="32" height="32" viewBox="0 0 32 32">
<path fill="#fff" d="M5.666 0h20.668c3.133 0 5.666 2.598 5.666 5.811v20.378c0 3.213-2.534 5.811-5.666 5.811h-20.668c-3.133 0-5.666-2.598-5.666-5.811v-20.378c0-3.213 2.534-5.811 5.666-5.811z"></path>
<path fill="#696969" d="M16.799 22.618h-8.449c-0.15 0-0.212-0.077-0.212-0.243v-13.978c-0.012-0.090 0.050-0.179 0.15-0.192 0.012 0 0.025 0 0.050 0h2.608c0.062-0.013 0.15 0.038 0.15 0.115 0 0.013 0 0.026 0 0.038v11.482h6.165c0.137 0 0.175 0.064 0.15 0.192l-0.387 2.381c0 0.064-0.037 0.128-0.075 0.166-0.050 0.026-0.1 0.038-0.15 0.038z"></path>
<path fill="#696969" d="M18.933 11.674h2.334c0.137 0 0.237 0.090 0.275 0.218 0.050 0.090 0.087 0.205 0.112 0.32 0.025 0.141 0.050 0.282 0.062 0.422 0.012 0.154 0.025 0.32 0.025 0.486 0.399-0.474 0.886-0.87 1.423-1.178 0.612-0.346 1.298-0.512 1.984-0.486 0.087-0.013 0.175 0.051 0.187 0.154 0 0.013 0 0.026 0 0.051v2.675c0 0.115-0.062 0.154-0.212 0.154-0.861-0.051-1.735 0.115-2.521 0.461-0.262 0.128-0.524 0.282-0.724 0.512v6.976c0 0.141-0.050 0.192-0.175 0.192h-2.596c-0.112 0.013-0.2-0.051-0.212-0.166 0-0.013 0-0.038 0-0.051v-7.578c0-0.333 0-0.666-0.012-1.024s-0.012-0.717-0.025-1.062c-0.012-0.307-0.037-0.602-0.075-0.909-0.012-0.064 0.025-0.141 0.087-0.154 0.025-0.026 0.037-0.026 0.062-0.013z"></path>
</svg>
