<!-- Generated by IcoMoon.io -->
<svg version="1.1" id="photoshop" xmlns="http://www.w3.org/2000/svg" width="32" height="32" viewBox="0 0 32 32">
<path fill="#fff" d="M5.667 0h20.667c3.133 0 5.667 2.598 5.667 5.812v20.376c0 3.214-2.533 5.812-5.667 5.812h-20.667c-3.133 0-5.667-2.598-5.667-5.812v-20.376c0-3.214 2.533-5.812 5.667-5.812z"></path>
<path fill="#696969" d="M7.2 22.441v-14.072c0-0.096 0.040-0.15 0.133-0.15 0.227 0 0.44 0 0.747-0.014 0.32-0.014 0.653-0.014 1.013-0.027s0.747-0.014 1.16-0.027c0.413-0.014 0.813-0.014 1.213-0.014 1.093 0 2 0.137 2.747 0.424 0.667 0.232 1.28 0.615 1.787 1.121 0.427 0.438 0.76 0.971 0.973 1.559 0.2 0.574 0.307 1.162 0.307 1.778 0 1.176-0.267 2.147-0.8 2.913s-1.28 1.34-2.147 1.668c-0.907 0.342-1.907 0.465-3 0.465-0.32 0-0.533 0-0.667-0.014s-0.32-0.014-0.573-0.014v4.39c0.013 0.096-0.053 0.178-0.147 0.191-0.013 0-0.027 0-0.053 0h-2.533c-0.107 0-0.16-0.055-0.16-0.178zM10.107 10.858v4.595c0.187 0.014 0.36 0.027 0.52 0.027h0.707c0.52 0 1.040-0.082 1.533-0.246 0.427-0.123 0.8-0.383 1.093-0.725 0.28-0.342 0.413-0.807 0.413-1.409 0.013-0.424-0.093-0.848-0.307-1.217-0.227-0.356-0.547-0.629-0.933-0.779-0.493-0.205-1.027-0.287-1.573-0.274-0.347 0-0.653 0-0.907 0.014-0.267-0.014-0.453 0-0.547 0.014z"></path>
<path fill="#696969" d="M25.6 14.619c-0.4-0.219-0.827-0.369-1.28-0.465-0.493-0.109-0.987-0.178-1.493-0.178-0.267-0.014-0.547 0.027-0.8 0.096-0.173 0.041-0.32 0.137-0.413 0.274-0.067 0.109-0.107 0.246-0.107 0.369s0.053 0.246 0.133 0.356c0.12 0.15 0.28 0.274 0.453 0.369 0.307 0.164 0.627 0.315 0.947 0.451 0.72 0.246 1.413 0.588 2.053 0.998 0.44 0.287 0.8 0.67 1.053 1.135 0.213 0.438 0.32 0.916 0.307 1.409 0.013 0.643-0.173 1.286-0.52 1.819-0.373 0.547-0.893 0.971-1.493 1.217-0.653 0.287-1.453 0.438-2.413 0.438-0.613 0-1.213-0.055-1.813-0.178-0.467-0.082-0.933-0.233-1.36-0.438-0.093-0.055-0.16-0.15-0.147-0.26v-2.379c0-0.041 0.013-0.096 0.053-0.123s0.080-0.014 0.12 0.014c0.52 0.315 1.067 0.533 1.653 0.67 0.507 0.137 1.040 0.205 1.573 0.205 0.507 0 0.867-0.068 1.107-0.191 0.213-0.096 0.36-0.328 0.36-0.574 0-0.191-0.107-0.369-0.32-0.547s-0.653-0.383-1.307-0.643c-0.68-0.246-1.307-0.574-1.893-0.985-0.413-0.301-0.76-0.697-1.013-1.162-0.213-0.438-0.32-0.916-0.307-1.395 0-0.588 0.16-1.149 0.453-1.655 0.333-0.547 0.827-0.985 1.4-1.258 0.627-0.328 1.413-0.479 2.36-0.479 0.547 0 1.107 0.041 1.653 0.123 0.4 0.055 0.787 0.164 1.147 0.314 0.053 0.014 0.107 0.068 0.133 0.123 0.013 0.055 0.027 0.109 0.027 0.164v2.229c0 0.055-0.027 0.109-0.067 0.137-0.12 0.027-0.187 0.027-0.24 0z"></path>
</svg>
