<!-- Generated by IcoMoon.io -->
<svg version="1.1" id="premierePro" xmlns="http://www.w3.org/2000/svg" width="32" height="32" viewBox="0 0 32 32">
<path fill="#fff" d="M5.667 0h20.667c3.133 0 5.667 2.598 5.667 5.812v20.376c0 3.214-2.533 5.812-5.667 5.812h-20.667c-3.133 0-5.667-2.598-5.667-5.812v-20.376c0-3.214 2.533-5.812 5.667-5.812z"></path>
<path fill="#696969" d="M7.6 22.427v-14.085c0-0.096 0.040-0.15 0.133-0.15 0.227 0 0.44 0 0.747-0.014 0.32-0.014 0.653-0.014 1.013-0.027s0.747-0.014 1.16-0.027c0.413-0.014 0.813-0.014 1.213-0.014 1.093 0 2 0.137 2.747 0.424 0.667 0.232 1.28 0.615 1.787 1.121 0.427 0.438 0.76 0.971 0.973 1.559 0.2 0.574 0.307 1.162 0.307 1.778 0 1.176-0.267 2.147-0.8 2.913s-1.28 1.34-2.147 1.668c-0.907 0.342-1.907 0.465-3 0.465-0.32 0-0.533 0-0.667-0.014s-0.32-0.014-0.573-0.014v4.39c0.013 0.096-0.053 0.178-0.147 0.191h-2.587c-0.107 0-0.16-0.055-0.16-0.178v0.014zM10.507 10.844v4.595c0.187 0.014 0.36 0.027 0.52 0.027h0.707c0.52 0 1.040-0.082 1.533-0.246 0.427-0.123 0.8-0.383 1.093-0.725 0.28-0.342 0.413-0.807 0.413-1.409 0.013-0.424-0.093-0.848-0.307-1.217-0.227-0.356-0.547-0.629-0.933-0.78-0.493-0.205-1.027-0.287-1.573-0.274-0.347 0-0.653 0-0.907 0.014-0.267-0.014-0.453 0-0.547 0.014z"></path>
<path fill="#696969" d="M19.6 11.651h2.333c0.133 0 0.24 0.096 0.28 0.219 0.040 0.109 0.067 0.219 0.080 0.342 0.027 0.137 0.053 0.287 0.067 0.424 0.013 0.15 0.027 0.314 0.027 0.492 0.4-0.479 0.88-0.875 1.427-1.176 0.613-0.356 1.32-0.533 2.027-0.533 0.093-0.014 0.173 0.055 0.187 0.15v2.721c0 0.109-0.067 0.15-0.213 0.15-0.48-0.014-0.973 0.027-1.44 0.137-0.387 0.082-0.76 0.205-1.12 0.369-0.253 0.123-0.493 0.287-0.68 0.506v6.974c0 0.137-0.053 0.191-0.173 0.191h-2.627c-0.107 0.014-0.2-0.055-0.213-0.164v-7.631c0-0.328 0-0.67-0.013-1.026s-0.013-0.711-0.027-1.067c0-0.315-0.027-0.615-0.053-0.93-0.013-0.068 0.027-0.137 0.093-0.15 0-0.014 0.027-0.014 0.040 0z"></path>
</svg>
